<?xml version="1.0" encoding="UTF-8" standalone="no"?>
<!-- Created with Inkscape (http://www.inkscape.org/) -->

<svg
   width="1920"
   height="1080"
   viewBox="0 0 507.99999 285.75"
   version="1.1"
   id="svg1"
   xml:space="preserve"
   xmlns:inkscape="http://www.inkscape.org/namespaces/inkscape"
   xmlns:sodipodi="http://sodipodi.sourceforge.net/DTD/sodipodi-0.dtd"
   xmlns:xlink="http://www.w3.org/1999/xlink"
   xmlns="http://www.w3.org/2000/svg"
   xmlns:svg="http://www.w3.org/2000/svg"><sodipodi:namedview
     id="namedview1"
     pagecolor="#ffffff"
     bordercolor="#000000"
     borderopacity="0.25"
     inkscape:showpageshadow="2"
     inkscape:pageopacity="0.0"
     inkscape:pagecheckerboard="0"
     inkscape:deskcolor="#d1d1d1"
     inkscape:document-units="mm" /><defs
     id="defs1"><rect
       x="931.29651"
       y="332.72842"
       width="1083.9399"
       height="241.82838"
       id="rect1" /></defs><g
     inkscape:label="Calque 1"
     inkscape:groupmode="layer"
     id="layer1"><image
       width="508"
       height="285.75"
       preserveAspectRatio="none"
       xlink:href="wallpaperbg.png"
       id="image1"
       x="0"
       y="0" /><g
       inkscape:label="Calque 1"
       id="layer1-9"
       transform="matrix(-0.69995204,0,0,0.69995204,132.17864,-50.401815)"><path
         style="fill:#63391e;fill-opacity:1;stroke:none;stroke-width:1.265;stroke-dasharray:none;stroke-opacity:1"
         d="m 93.661091,116.7163 -19.143916,8.43979 -8.233942,21.2024 3.499427,14.20355 6.998851,6.793 1.852636,36.4352 11.115821,5.76376 3.911123,0.20584 z"
         id="path1" /><path
         style="fill:#ae6636;fill-opacity:1;stroke:none;stroke-width:1.265;stroke-dasharray:none;stroke-opacity:1"
         d="m 63.374972,145.74196 -43.970258,-0.20643 -15.8953508,-19.81758 1.6514651,-7.84446 6.8122937,1.44503 12.385988,13.21172 15.688918,-3.09649 -29.313505,-23.73982 -7.2251598,-18.578975 1.2385987,-5.160827 5.5736951,1.857898 4.747961,14.45032 5.986561,3.715794 -2.064331,-11.35382 V 79.683362 l 3.30293,-3.509362 4.747961,2.683629 0.206434,8.670192 1.238599,9.908792 v 0 l 3.509364,-9.289492 5.367261,-7.225159 7.018726,-0.825733 0.6193,5.36726 -3.509365,6.399427 -4.954394,6.39943 35.506498,26.217004 z"
         id="path3"
         sodipodi:nodetypes="cccccccccccccccccccccccccccc" /><path
         style="fill:#63391e;fill-opacity:1;stroke:none;stroke-width:1.265;stroke-dasharray:none;stroke-opacity:1"
         d="m 69.88067,129.1436 3.086602,-6.17321 5.308955,-3.0866 -15.186081,-8.14863 -7.654774,1.60504 -2.839675,4.8151 -0.123462,5.06202 z"
         id="path2" /><path
         style="fill:#63391e;fill-opacity:1;stroke:none;stroke-width:1.265;stroke-dasharray:none;stroke-opacity:1"
         d="m 94.186498,116.7163 19.143912,8.4398 8.23394,21.2024 -3.49942,14.20355 -6.99885,6.793 -1.85264,36.4352 -11.115822,5.76376 -3.91112,0.20584 z"
         id="path1-5" /><path
         style="fill:#ae6636;fill-opacity:1;stroke:none;stroke-width:1.265;stroke-dasharray:none;stroke-opacity:1"
         d="m 124.47261,145.74197 43.97026,-0.20643 15.89535,-19.81758 -1.65147,-7.84447 -6.81229,1.44503 -12.38598,13.21173 -15.68892,-3.09649 29.3135,-23.73983 7.22516,-18.578975 -1.2386,-5.160827 -5.57369,1.857898 -4.74796,14.45032 -5.98656,3.715794 2.06433,-11.35382 V 79.683362 l -3.30293,-3.509362 -4.74796,2.683629 -0.20644,8.670192 -1.2386,9.908792 v 0 l -3.50936,-9.289492 -5.36726,-7.225159 -7.01873,-0.825733 -0.6193,5.36726 3.50937,6.399427 4.95439,6.39943 -35.5065,26.217014 z"
         id="path3-0"
         sodipodi:nodetypes="cccccccccccccccccccccccccccc" /><path
         style="fill:#63391e;fill-opacity:1;stroke:none;stroke-width:1.265;stroke-dasharray:none;stroke-opacity:1"
         d="m 117.96692,129.14361 -3.08661,-6.17321 -5.30895,-3.08661 15.18608,-8.14863 7.65477,1.60504 2.83968,4.8151 0.12346,5.06203 z"
         id="path2-2" /></g><text
       xml:space="preserve"
       transform="matrix(0.32605017,0,0,0.32605017,-220.52235,-48.145325)"
       id="text1"
       style="font-style:normal;font-variant:normal;font-weight:normal;font-stretch:normal;font-size:96px;font-family:Verdana;-inkscape-font-specification:Verdana;white-space:pre;shape-inside:url(#rect1);fill:#63391e;fill-opacity:1;stroke-width:4.7811;stroke-dashoffset:259.136"><tspan
         x="931.29688"
         y="420.55843"
         id="tspan3"><tspan
           style="font-family:'Lucida Sans';-inkscape-font-specification:'Lucida Sans'"
           id="tspan2">ORIGNAL</tspan></tspan></text></g></svg>
