<?xml version="1.0" encoding="UTF-8" standalone="no"?>
<!-- Created with Inkscape (http://www.inkscape.org/) -->

<svg
   width="1920"
   height="1080"
   viewBox="0 0 1920 1080"
   version="1.1"
   id="svg1"
   inkscape:export-filename="wallpaperbg.svg"
   inkscape:export-xdpi="96"
   inkscape:export-ydpi="96"
   xmlns:inkscape="http://www.inkscape.org/namespaces/inkscape"
   xmlns:sodipodi="http://sodipodi.sourceforge.net/DTD/sodipodi-0.dtd"
   xmlns="http://www.w3.org/2000/svg"
   xmlns:svg="http://www.w3.org/2000/svg">
  <sodipodi:namedview
     id="namedview1"
     pagecolor="#ffffff"
     bordercolor="#000000"
     borderopacity="0.25"
     inkscape:showpageshadow="2"
     inkscape:pageopacity="0.0"
     inkscape:pagecheckerboard="0"
     inkscape:deskcolor="#d1d1d1"
     inkscape:document-units="px" />
  <defs
     id="defs1" />
  <g
     inkscape:groupmode="layer"
     id="layer5"
     inkscape:label="bg4"
     style="fill:#3c9695;fill-opacity:1">
    <rect
       style="fill:#3ecde5;fill-opacity:1;stroke-width:4.7811;stroke-dashoffset:259.136"
       id="rect6"
       width="2339.853"
       height="1444.5394"
       x="-283.39056"
       y="-115.36253" />
  </g>
  <g
     inkscape:groupmode="layer"
     id="layer6"
     inkscape:label="bg5">
    <path
       style="fill:#ffffff;fill-opacity:1;stroke-width:4.7811;stroke-dashoffset:259.136"
       d="m 389.25543,211.72241 -97.207,27.58577 -90.6389,-15.7633 -88.01176,23.64495 -93.26618,-30.21299 -137.92885,40.72185 -55.17154,-61.73958 -26.27216,-99.834219 80.13009,-88.0117364 107.71587,-6.56804 56.48515,31.5265904 90.63898,-43.349063 91.9525,38.094633 73.5621,-40.721849 80.1301,7.8816476 63.0532,47.2898914 21.0177,66.994015 -3.9408,52.54432 z"
       id="path7" />
    <path
       style="fill:#ffffff;fill-opacity:1;stroke-width:4.7811;stroke-dashoffset:259.136"
       d="m 1242.9939,191.39227 -97.207,27.58577 -90.6389,-15.7633 -88.01167,23.64495 -93.2662,-30.21299 -137.9289,40.72185 -55.17154,-61.73958 -26.27216,-99.83422 80.13009,-88.011749 107.71591,-6.56804 56.4851,31.52659 90.639,-43.349063 91.95247,38.0946325 73.5621,-40.7218485 80.1301,7.881648 63.0532,47.289891 21.0177,66.994029 -3.9408,52.54432 z"
       id="path7-8" />
    <path
       style="fill:#ffffff;fill-opacity:1;stroke-width:4.7811;stroke-dashoffset:259.136"
       d="m 2082.0363,168.05424 -97.207,27.58577 -90.6389,-15.7633 -88.0117,23.64495 -93.2662,-30.21299 -137.9289,40.72185 -55.1715,-61.73958 -26.2722,-99.834222 80.1301,-88.01174 107.7159,-6.568041 56.4851,31.52659 90.639,-43.349063 91.9525,38.094633 73.5621,-40.721849 80.1301,7.881648 63.0532,47.2898914 21.0177,66.9940206 -3.9408,52.544322 z"
       id="path7-8-0" />
  </g>
  <g
     inkscape:groupmode="layer"
     id="layer3"
     inkscape:label="bg2">
    <path
       style="fill:#1dd200;fill-opacity:1;stroke-width:4.7811;stroke-dashoffset:259.136"
       d="m 360.74534,1132.9193 1232.79506,1.4906 -423.354,-319.00618 -122.236,71.5528 -80.49694,-73.04348 -110.3106,74.53416 -111.80125,-73.04348 z"
       id="path5" />
  </g>
  <g
     inkscape:groupmode="layer"
     id="layer4"
     inkscape:label="bg3">
    <g
       inkscape:groupmode="layer"
       id="layer2"
       inkscape:label="bg1">
      <g
         inkscape:label="Calque 1"
         inkscape:groupmode="layer"
         id="layer1">
        <circle
           id="path1"
           style="fill:#63391e;stroke:#000000"
           cx="0"
           cy="979.37891"
           r="3.587996" />
        <path
           style="fill:#159700;fill-opacity:1;stroke-width:4.7811;stroke-dashoffset:259.136"
           d="M -2.9813665,876.52174 292.17391,737.8882 1144.8447,1131.4286 -43.229814,1132.9193 -79.006211,903.35404 Z"
           id="path3" />
        <path
           style="fill:#159700;fill-opacity:1;stroke-width:4.7811;stroke-dashoffset:259.136"
           d="M 879.50311,1115.0311 C 1553.2919,791.5528 1553.2919,791.5528 1553.2919,791.5528 l 575.4038,323.4783 z"
           id="path4" />
      </g>
    </g>
    <path
       style="fill:#ffffff;fill-opacity:1;stroke-width:5.15747;stroke-dashoffset:259.136"
       d="M 733.38315,819.37857 950.6189,600.18107 1186.9823,821.453 1069.4838,906.50439 982.72607,853.95231 837.2191,924.48274 729.28436,919.64241 680.78204,898.20669 676.00013,867.78181 Z"
       id="path6" />
  </g>
</svg>
